<svg width="986" height="557" viewBox="0 0 986 557" fill="none" xmlns="http://www.w3.org/2000/svg">
<path d="M986 282.5C986.012 286.744 984.726 290.918 982.267 294.617C979.808 298.316 976.259 301.414 971.966 303.608L705.909 441.32C701.423 443.645 696.286 444.913 691.027 444.996C685.768 445.078 680.579 443.971 675.994 441.789C671.454 439.641 667.671 436.509 665.036 432.714C662.401 428.919 661.008 424.598 661 420.197V144.803C661.008 140.402 662.401 136.081 665.036 132.286C667.671 128.491 671.454 125.359 675.994 123.211C680.579 121.029 685.768 119.922 691.027 120.004C696.286 120.087 701.423 121.355 705.909 123.679L971.966 261.392C976.259 263.586 979.808 266.684 982.267 270.383C984.726 274.082 986.012 278.256 986 282.5Z" fill="white"/>
<path d="M210.561 207.669C209.254 194.492 203.646 184.255 193.736 176.959C183.826 169.662 170.376 166.014 153.388 166.014C141.844 166.014 132.098 167.648 124.148 170.915C116.198 174.073 110.099 178.483 105.852 184.146C101.714 189.809 99.6449 196.234 99.6449 203.422C99.4271 209.411 100.679 214.639 103.402 219.104C106.233 223.569 110.099 227.435 115 230.702C119.901 233.86 125.563 236.637 131.989 239.033C138.414 241.32 145.275 243.28 152.571 244.913L182.628 252.101C197.221 255.368 210.616 259.724 222.812 265.169C235.009 270.614 245.573 277.312 254.503 285.261C263.433 293.211 270.348 302.577 275.249 313.358C280.258 324.139 282.817 336.5 282.926 350.439C282.817 370.912 277.59 388.663 267.244 403.692C257.008 418.611 242.197 430.209 222.812 438.486C203.537 446.653 180.286 450.737 153.061 450.737C126.054 450.737 102.531 446.599 82.4929 438.322C62.5639 430.046 46.991 417.795 35.7741 401.568C24.6662 385.233 18.84 365.032 18.2955 340.964H86.7401C87.5024 352.181 90.715 361.547 96.3778 369.061C102.15 376.466 109.827 382.075 119.411 385.886C129.103 389.589 140.047 391.44 152.244 391.44C164.223 391.44 174.624 389.698 183.445 386.213C192.375 382.728 199.29 377.882 204.19 371.675C209.091 365.467 211.541 358.334 211.541 350.276C211.541 342.761 209.309 336.445 204.844 331.327C200.488 326.208 194.063 321.852 185.568 318.259C177.183 314.665 166.892 311.398 154.695 308.457L118.267 299.31C90.0616 292.449 67.7912 281.722 51.456 267.129C35.1207 252.536 27.0076 232.88 27.1165 208.159C27.0076 187.903 32.3982 170.207 43.2884 155.07C54.2874 139.932 69.3703 128.116 88.5369 119.622C107.704 111.128 129.484 106.881 153.878 106.881C178.707 106.881 200.379 111.128 218.892 119.622C237.514 128.116 251.998 139.932 262.344 155.07C272.689 170.207 278.026 187.74 278.352 207.669H210.561ZM317.761 169.771V111.455H592.52V169.771H490.098V446H420.183V169.771H317.761Z" fill="white"/>
</svg>
